<svg id="Layer_4" data-name="Layer 4" xmlns="http://www.w3.org/2000/svg" viewBox="0 0 123.82 154.72"><title>BIG IDeA background logo-all colours</title><polygon points="88.59 0.13 122.6 59.36 54.59 59.36 88.59 0.13" style="fill:#451125"/><polygon points="61.46 47.38 34.35 0.16 88.58 0.16 61.46 47.38" style="fill:#861a44"/><polygon points="54.69 35.59 61.46 47.38 47.92 47.36 54.69 35.59" style="fill:#068293"/><polygon points="54.59 59.36 47.92 47.36 61.46 47.38 54.59 59.36" style="fill:#e69e3b"/><polygon points="54.69 35.59 34.35 0.16 13.85 35.59 54.69 35.59" style="fill:#068293"/><polygon points="27.51 59.26 13.85 35.59 0.17 59.26 27.51 59.26" style="fill:#006374"/><polygon points="13.85 35.59 34.32 71.08 54.69 35.59 13.85 35.59" style="fill:#62bdbf"/><polygon points="54.59 59.36 41.02 59.36 47.92 47.36 54.59 59.36" style="fill:#068293"/><polygon points="0.2 59.27 13.88 83.02 27.51 59.26 0.2 59.27" style="fill:#00313c"/><polygon points="27.51 59.26 34.32 71.08 20.71 71.08 27.51 59.26" style="fill:#068293"/><polygon points="20.71 71.08 27.48 83.02 13.85 83.02 20.71 71.08" style="fill:#068293"/><polygon points="20.71 71.08 27.48 83.02 34.32 71.08 20.71 71.08" style="fill:#00313c"/><polygon points="13.85 83.02 34.26 118.44 54.6 83.02 13.85 83.02" style="fill:#006374"/><polygon points="34.26 118.44 41.08 130.29 47.86 118.48 34.26 118.44" style="fill:#62bdbf"/><polygon points="75.08 118.48 81.91 130.29 88.68 118.48 75.08 118.48" style="fill:#451125"/><polygon points="47.86 118.48 61.42 118.48 54.63 130.29 47.86 118.48" style="fill:#00313c"/><polygon points="61.43 118.48 75.08 118.48 68.24 130.29 61.43 118.48" style="fill:#d36e97"/><polygon points="122.6 59.36 95.43 59.36 109.04 82.99 122.6 59.36" style="fill:#451125"/><polygon points="109.04 82.99 68.19 82.99 88.68 118.48 109.04 82.99" style="fill:#451125"/><polygon points="81.89 59.36 41.02 59.36 61.39 94.85 81.89 59.36" style="fill:#f4d1a6"/><polygon points="109.04 82.99 81.8 82.99 95.44 59.36 109.04 82.99" style="fill:#ae3462"/><polygon points="81.89 59.36 88.65 71.13 75.06 71.13 81.89 59.36" style="fill:#d36e97"/><polygon points="68.19 82.99 81.8 82.99 75.06 71.13 68.19 82.99" style="fill:#d36e97"/><polygon points="75.06 71.12 88.65 71.12 81.8 82.99 75.06 71.12" style="fill:#e69e3b"/><polygon points="81.89 59.36 95.43 59.36 88.65 71.13 81.89 59.36" style="fill:#451125"/><polygon points="47.86 118.48 88.68 118.48 68.19 82.99 47.86 118.48" style="fill:#ae3462"/><polygon points="41.08 130.29 47.86 118.48 54.63 130.29 41.08 130.29" style="fill:#006374"/><polygon points="54.63 130.29 61.43 118.48 68.24 130.29 54.63 130.29" style="fill:#ae3462"/><polygon points="68.24 130.29 75.08 118.48 81.91 130.29 68.24 130.29" style="fill:#ae3462"/><polygon points="47.86 118.48 34.26 118.44 41.03 106.65 47.86 118.48" style="fill:#00313c"/><polygon points="41.03 106.65 54.63 106.65 47.86 118.48 41.03 106.65" style="fill:#068293"/><polygon points="54.63 106.65 61.39 94.85 47.81 94.85 54.63 106.65" style="fill:#00313c"/><polygon points="54.6 83.02 47.81 94.85 61.39 94.85 54.6 83.02" style="fill:#62bdbf"/><polygon points="47.81 94.85 41.03 106.65 54.63 106.65 47.81 94.85" style="fill:#068293"/><polygon points="47.83 142.16 74.98 142.16 68.2 153.97 54.65 153.97 47.83 142.16" style="fill:#006374"/><polygon points="61.38 142.16 68.17 153.97 74.98 142.16 61.38 142.16" style="fill:#451125"/><polygon points="47.83 142.16 54.61 153.97 61.42 142.16 47.83 142.16" style="fill:#62bdbf"/><polygon points="41.02 59.36 27.48 83.02 54.6 83.02 41.02 59.36" style="fill:#068293"/></svg>