<svg id="Layer_3" data-name="Layer 3" xmlns="http://www.w3.org/2000/svg" viewBox="0 0 123.82 154.72"><title>BIG IDeA background logo-WHITE</title><polygon points="88.65 0.51 122.63 59.58 54.67 59.58 88.65 0.51" style="fill:#fff"/><polygon points="61.54 47.63 34.45 0.54 88.64 0.54 61.54 47.63" style="fill:#848484"/><polygon points="54.77 35.87 61.54 47.63 48.01 47.62 54.77 35.87" style="fill:#ccc"/><polygon points="54.77 35.87 34.45 0.54 13.97 35.88 54.77 35.87" style="fill:#ccc"/><polygon points="27.61 59.49 13.97 35.87 0.3 59.49 27.61 59.49" style="fill:#ccc"/><polygon points="13.97 35.88 34.42 71.27 54.77 35.87 13.97 35.88" style="fill:#fff"/><polygon points="54.67 59.58 41.12 59.58 48.01 47.62 54.67 59.58" style="fill:#ccc"/><polygon points="0.32 59.49 13.99 83.18 27.61 59.49 0.32 59.49" style="fill:#848484"/><polygon points="27.61 59.49 34.42 71.27 20.82 71.27 27.61 59.49" style="fill:#767676"/><polygon points="20.82 71.27 27.59 83.18 13.97 83.18 20.82 71.27" style="fill:#767676"/><polygon points="20.82 71.27 27.59 83.18 34.42 71.27 20.82 71.27" style="fill:#fff"/><polygon points="13.97 83.18 34.35 118.51 54.69 83.18 13.97 83.18" style="fill:#848484"/><polygon points="34.35 118.51 41.17 130.33 47.94 118.55 34.35 118.51" style="fill:#fff"/><polygon points="75.15 118.55 81.97 130.33 88.73 118.55 75.15 118.55" style="fill:#fff"/><polygon points="47.94 118.55 61.5 118.55 54.72 130.33 47.94 118.55" style="fill:#fff"/><polygon points="61.5 118.55 75.15 118.55 68.31 130.33 61.5 118.55" style="fill:#fff"/><polygon points="122.63 59.58 95.48 59.58 109.08 83.15 122.63 59.58" style="fill:#fff"/><polygon points="109.08 83.15 68.26 83.15 88.73 118.55 109.08 83.15" style="fill:#fff"/><polygon points="109.08 83.15 81.86 83.15 95.48 59.58 109.08 83.15" style="fill:#848484"/><polygon points="81.95 59.58 88.7 71.32 75.13 71.32 81.95 59.58" style="fill:#ccc"/><polygon points="68.26 83.15 81.86 83.15 75.13 71.32 68.26 83.15" style="fill:#ccc"/><polygon points="81.95 59.58 95.48 59.58 88.7 71.32 81.95 59.58" style="fill:#fff"/><polygon points="47.94 118.55 88.73 118.55 68.26 83.15 47.94 118.55" style="fill:#848484"/><polygon points="41.17 130.33 47.94 118.55 54.72 130.33 41.17 130.33" style="fill:#404040"/><polygon points="54.72 130.33 61.5 118.55 68.31 130.33 54.72 130.33" style="fill:#404040"/><polygon points="68.31 130.33 75.15 118.55 81.97 130.33 68.31 130.33" style="fill:#848484"/><polygon points="47.94 118.55 34.35 118.51 41.12 106.75 47.94 118.55" style="fill:#fff"/><polygon points="41.12 106.75 54.72 106.75 47.94 118.55 41.12 106.75" style="fill:#ccc"/><polygon points="54.72 106.75 61.47 94.98 47.89 94.98 54.72 106.75" style="fill:#ccc"/><polygon points="54.69 83.18 47.9 94.98 61.47 94.98 54.69 83.18" style="fill:#fff"/><polygon points="47.9 94.98 41.12 106.75 54.72 106.75 47.9 94.98" style="fill:#e6e7e8"/><polygon points="47.91 142.17 75.05 142.17 68.28 153.95 54.73 153.95 47.91 142.17" style="fill:#ccc"/><polygon points="61.46 142.17 68.24 153.95 75.05 142.17 61.46 142.17" style="fill:#848484"/><polygon points="47.92 142.17 54.7 153.95 61.51 142.17 47.92 142.17" style="fill:#fff"/><polygon points="41.12 59.58 27.59 83.18 54.69 83.18 41.12 59.58" style="fill:#ccc"/></svg>