<svg id="Layer_2" data-name="Layer 2" xmlns="http://www.w3.org/2000/svg" viewBox="0 0 123.82 154.72"><title>BIG IDeA background logo-YELLOW</title><polygon points="88.52 0.23 122.52 59.45 54.51 59.45 88.52 0.23" style="fill:#f7ec13"/><polygon points="61.39 47.48 34.27 0.25 88.5 0.25 61.39 47.48" style="fill:#918b34"/><polygon points="54.62 35.68 61.39 47.48 47.85 47.46 54.62 35.68" style="fill:#b2af34"/><polygon points="54.62 35.68 34.27 0.25 13.78 35.69 54.62 35.68" style="fill:#b2af34"/><polygon points="27.43 59.36 13.78 35.68 0.1 59.36 27.43 59.36" style="fill:#b2af34"/><polygon points="13.78 35.69 34.24 71.17 54.62 35.68 13.78 35.69" style="fill:#e5e2a8"/><polygon points="54.51 59.45 40.95 59.45 47.85 47.46 54.51 59.45" style="fill:#b2af34"/><polygon points="0.12 59.36 13.8 83.12 27.43 59.36 0.12 59.36" style="fill:#918b34"/><polygon points="27.43 59.36 34.24 71.17 20.63 71.17 27.43 59.36" style="fill:#b2af34"/><polygon points="20.63 71.17 27.41 83.12 13.78 83.12 20.63 71.17" style="fill:#b2af34"/><polygon points="20.63 71.17 27.41 83.12 34.24 71.17 20.63 71.17" style="fill:#918b34"/><polygon points="13.78 83.12 34.18 118.54 54.53 83.11 13.78 83.12" style="fill:#918b34"/><polygon points="34.18 118.54 41.01 130.39 47.78 118.58 34.18 118.54" style="fill:#e5e2a8"/><polygon points="75.01 118.58 81.83 130.39 88.61 118.58 75.01 118.58" style="fill:#f7ec13"/><polygon points="47.78 118.58 61.35 118.58 54.56 130.39 47.78 118.58" style="fill:#b2af34"/><polygon points="61.35 118.58 75.01 118.58 68.16 130.39 61.35 118.58" style="fill:#c9c241"/><polygon points="122.52 59.45 95.36 59.45 108.97 83.08 122.52 59.45" style="fill:#f7ec13"/><polygon points="108.97 83.08 68.11 83.08 88.61 118.58 108.97 83.08" style="fill:#f7ec13"/><polygon points="108.97 83.08 81.73 83.08 95.36 59.45 108.97 83.08" style="fill:#918b34"/><polygon points="81.81 59.45 88.57 71.22 74.99 71.22 81.81 59.45" style="fill:#f7ec13"/><polygon points="68.11 83.08 81.73 83.08 74.99 71.22 68.11 83.08" style="fill:#f7ec13"/><polygon points="81.81 59.45 95.36 59.45 88.57 71.22 81.81 59.45" style="fill:#f7ec13"/><polygon points="47.78 118.58 88.61 118.58 68.11 83.08 47.78 118.58" style="fill:#918b34"/><polygon points="41.01 130.39 47.78 118.58 54.56 130.39 41.01 130.39" style="fill:#918b34"/><polygon points="54.56 130.39 61.35 118.58 68.16 130.39 54.56 130.39" style="fill:#f7ec13"/><polygon points="68.16 130.39 75 118.58 81.83 130.39 68.16 130.39" style="fill:#918b34"/><polygon points="47.78 118.58 34.18 118.54 40.95 106.75 47.78 118.58" style="fill:#b2af34"/><polygon points="40.95 106.75 54.56 106.75 47.78 118.58 40.95 106.75" style="fill:#b2af34"/><polygon points="54.56 106.75 61.32 94.95 47.73 94.95 54.56 106.75" style="fill:#b2af34"/><polygon points="54.53 83.11 47.73 94.95 61.32 94.95 54.53 83.11" style="fill:#e5e2a8"/><polygon points="47.73 94.95 40.95 106.75 54.56 106.75 47.73 94.95" style="fill:#b2af34"/><polygon points="47.75 142.26 74.91 142.26 68.13 154.06 54.57 154.06 47.75 142.26" style="fill:#b2af34"/><polygon points="61.31 142.26 68.09 154.06 74.91 142.26 61.31 142.26" style="fill:#f7ec13"/><polygon points="47.75 142.26 54.53 154.06 61.35 142.26 47.75 142.26" style="fill:#e5e2a8"/><polygon points="40.95 59.45 27.41 83.12 54.53 83.12 40.95 59.45" style="fill:#b2af34"/></svg>