<svg id="Layer_1" data-name="Layer 1" xmlns="http://www.w3.org/2000/svg" viewBox="0 0 123.82 154.72"><title>BIG IDeA background logo-GREY</title><polygon points="88.63 0.47 122.6 59.54 54.65 59.54 88.63 0.47"/><polygon points="61.52 47.6 34.42 0.5 88.61 0.5 61.52 47.6" style="fill:#404040"/><polygon points="54.75 35.84 61.52 47.6 47.99 47.58 54.75 35.84" style="fill:#767676"/><polygon points="54.75 35.84 34.42 0.5 13.95 35.84 54.75 35.84" style="fill:#767676"/><polygon points="27.59 59.45 13.95 35.84 0.28 59.45 27.59 59.45" style="fill:#767676"/><polygon points="13.95 35.84 34.39 71.23 54.75 35.84 13.95 35.84" style="fill:#c4c4c4"/><polygon points="54.65 59.54 41.09 59.54 47.99 47.58 54.65 59.54" style="fill:#767676"/><polygon points="0.3 59.45 13.97 83.14 27.59 59.45 0.3 59.45" style="fill:#404040"/><polygon points="27.59 59.45 34.39 71.23 20.79 71.23 27.59 59.45" style="fill:#767676"/><polygon points="20.79 71.23 27.57 83.14 13.95 83.14 20.79 71.23" style="fill:#767676"/><polygon points="20.79 71.23 27.57 83.14 34.39 71.23 20.79 71.23" style="fill:#404040"/><polygon points="13.95 83.15 34.33 118.48 54.66 83.14 13.95 83.15" style="fill:#404040"/><polygon points="34.33 118.48 41.15 130.29 47.92 118.52 34.33 118.48" style="fill:#c4c4c4"/><polygon points="75.12 118.52 81.95 130.29 88.71 118.52 75.12 118.52"/><polygon points="47.92 118.52 61.48 118.52 54.69 130.29 47.92 118.52" style="fill:#767676"/><polygon points="61.48 118.52 75.12 118.52 68.29 130.29 61.48 118.52" style="fill:#767676"/><polygon points="122.6 59.54 95.46 59.54 109.06 83.11 122.6 59.54"/><polygon points="109.06 83.11 68.23 83.11 88.71 118.52 109.06 83.11"/><polygon points="109.06 83.11 81.84 83.11 95.46 59.54 109.06 83.11" style="fill:#404040"/><polygon points="81.92 59.54 88.68 71.28 75.11 71.28 81.92 59.54" style="fill:#767676"/><polygon points="68.23 83.11 81.84 83.11 75.11 71.28 68.23 83.11" style="fill:#767676"/><polygon points="81.92 59.54 95.46 59.54 88.68 71.28 81.92 59.54"/><polygon points="47.92 118.52 88.71 118.52 68.23 83.11 47.92 118.52" style="fill:#404040"/><polygon points="41.15 130.29 47.92 118.52 54.69 130.29 41.15 130.29" style="fill:#404040"/><polygon points="54.69 130.29 61.48 118.52 68.29 130.29 54.69 130.29" style="fill:#404040"/><polygon points="68.29 130.29 75.12 118.52 81.95 130.29 68.29 130.29" style="fill:#404040"/><polygon points="47.92 118.52 34.33 118.48 41.1 106.71 47.92 118.52"/><polygon points="41.1 106.71 54.69 106.71 47.92 118.52 41.1 106.71" style="fill:#767676"/><polygon points="54.69 106.71 61.45 94.95 47.87 94.95 54.69 106.71" style="fill:#767676"/><polygon points="54.66 83.14 47.87 94.95 61.45 94.95 54.66 83.14" style="fill:#c4c4c4"/><polygon points="47.87 94.95 41.1 106.71 54.69 106.71 47.87 94.95" style="fill:#404040"/><polygon points="47.89 142.14 75.02 142.14 68.25 153.91 54.71 153.91 47.89 142.14" style="fill:#404040"/><polygon points="61.44 142.14 68.22 153.91 75.02 142.14 61.44 142.14"/><polygon points="47.9 142.14 54.68 153.91 61.49 142.14 47.9 142.14" style="fill:#c4c4c4"/><polygon points="41.09 59.54 27.57 83.14 54.66 83.14 41.09 59.54" style="fill:#767676"/></svg>