<svg id="Layer_1" data-name="Layer 1" xmlns="http://www.w3.org/2000/svg" viewBox="0 0 446.35 147.14"><title>Ontario-Logo</title><g style="isolation:isolate"><path d="M17.38,68.41a2.21,2.21,0,0,0,.32-.79,2.08,2.08,0,0,0-.56-1.52A6.15,6.15,0,0,0,12.47,64a5.73,5.73,0,0,0-4.9,4.54,3.22,3.22,0,0,0,3.64,3.84C13.16,72.17,16.35,70.06,17.38,68.41Z"/><path d="M40.93,65.24c.17-1.36-1.4-2.59-4.87-3.84C25.63,57.66,19.48,48.32,17.43,34.1V34l-.08-.08c-.49-.45-1.12-.9-1.76-.36-1.37,1.15-.49,6.1,2.79,20L19.64,59a21.72,21.72,0,0,1,.51,8,28.8,28.8,0,0,1-2.91,8.48l-3,6.14C6.15,98,3.46,104,4.57,105.12c.52.52,1.38-.14,2.08-.78l.13-.11.06-.16A93.14,93.14,0,0,1,14,89.93q8.66-13.79,21-19.87c3.07-1.51,4.91-2.79,5.63-3.93A2.09,2.09,0,0,0,40.93,65.24Z"/><path d="M112.84,36.89l.19,0,.19-.08a4.79,4.79,0,0,0,2.07-1.39,1.12,1.12,0,0,0,.18-.67c-.15-2-7.46-2.24-26.9-1.91l-7,.1A20.91,20.91,0,0,1,73,31.63a15.81,15.81,0,0,1-5.95-4.91L63.6,22.37C54.91,11.35,51.69,7.8,50.06,8.8a1.29,1.29,0,0,0-.44.44A2.93,2.93,0,0,0,49.35,11v.15l.08.09C59,20.9,62.5,32.74,59.33,46.1c-1,4.34-1,6.64.1,7.2s3.32-.6,7-3.69C78.17,39.79,93.46,35.43,112.84,36.89Z"/><path d="M81.51,17.48c-2.08-.81-5.11.7-6.79,3.36s-1.83,7.42-.37,8,6.29-2.41,7.92-5S83.62,18.29,81.51,17.48Z"/><path d="M54.73,109.33l4.86-6a29.5,29.5,0,0,1,7.56-7,26.88,26.88,0,0,1,9.56-3.18l7.53-1.24c20.89-3.36,28.74-5,29.06-7.3.15-1.06-1.1-1.56-2.21-1.88l-.19-.05-.21,0C89.88,88,74.21,86,63.65,77.33c-3.24-2.65-5.32-3.49-6.59-2.69a2.38,2.38,0,0,0-.69.73c-.75,1.2-1.05,3.49-.94,7.1.31,10-2.75,20.25-9.14,30.42A89.12,89.12,0,0,1,35.7,126.46l-.12.14-.06.18c-.31,1.05-.56,2.32.18,2.77C37.31,130.53,42.06,125.14,54.73,109.33Z"/><path d="M67.63,108.53a5.7,5.7,0,0,0,3.46,3.19,4.47,4.47,0,0,0,3.53-.39,5.31,5.31,0,0,0,2.34-3,6.82,6.82,0,0,0-.33-5c-1.34-2.8-6.08-5.46-7.81-4.44a2.21,2.21,0,0,0-.68.72,5.7,5.7,0,0,0-.55,1.21A12.41,12.41,0,0,0,67.63,108.53Z"/></g><g style="isolation:isolate"><path d="M157.66,56.18a.71.71,0,0,0,.29-.54.56.56,0,0,0-.3-.49c-1.39-.86-31.9-19.39-57.58-12.71a.82.82,0,0,0-.5.36.65.65,0,0,0-.1.29.49.49,0,0,0,.5.53c17,1.21,33.53,10.31,38.42,13.22l.82.48-.82.62c-5,3.74-22.18,16-39.92,20.51a.74.74,0,0,0-.58.68.57.57,0,0,0,.56.58C124.84,82,156.29,57.26,157.66,56.18Z"/><path d="M50.21,20.7a.64.64,0,0,0,.26-.67C45.47,3.84,24.06.14,23.21,0a.46.46,0,0,0-.36.11.71.71,0,0,0-.26.35c-.32,1-7.77,26,.9,39a.39.39,0,0,0,.57.05.68.68,0,0,0,.3-.64c-2.08-11.72,1.22-25.8,2.27-29.78l.17-.65.53.13c3.24.77,14.82,4,22.25,12.12A.48.48,0,0,0,50.21,20.7Z"/><path d="M39.27,114a.65.65,0,0,0-.13-.79h0a.53.53,0,0,0-.72.13c-10.89,12.12-25.66,19-29.8,20.76l-.67.28,0-.84c.21-5,1.36-22.11,7.41-36.47a.56.56,0,0,0-.13-.69.49.49,0,0,0-.63.18C.87,113.88,0,145.12,0,146.5a.6.6,0,0,0,.16.45.38.38,0,0,0,.4.08C1.66,146.62,28.9,136.56,39.27,114Z"/></g><path d="M222.84,95.6h8.53v8h.19c2.64-5.7,9-9.16,15.69-9.16,12.38,0,17.91,8.09,17.91,21.61V146h-8.84V119.88c0-11.73-2.43-17.44-10.12-17.94-10,0-14.53,8.49-14.53,20.71V146h-8.83Z"/><path d="M306,99.17a29.05,29.05,0,0,1,15.76-4.74c13.68,0,19.19,7.11,19.19,20.8v20.85a80.07,80.07,0,0,0,.4,9.87h-8.27v-6.52h-.16a17.58,17.58,0,0,1-14.84,7.7c-10.31,0-17.53-4.73-17.53-15.69,0-12.65,13.12-16.59,22.24-16.59,3.47,0,5.88,0,9.36.23,0-8.7-3-13.14-11.8-13.14a21.66,21.66,0,0,0-13.88,5.13l-.47-7.9M332.14,122c-1.88,0-3.73-.2-5.63-.2-4.76,0-16.6.79-16.6,9.67,0,5.34,4.88,8.21,8.92,8.21,8.72,0,13.31-5.74,13.31-13.25Z"/><path d="M375.66,103.72a15.82,15.82,0,0,0-3.64-.39c-8.31,0-13.74,7.9-13.74,20.55V146H349V96h8.71v8.22h.18c2.48-5.24,7.81-9,13.14-9a24,24,0,0,1,4.65.39Z"/><path d="M422.05,94.44c14.52,0,24.3,11,24.3,26.36,0,14.4-9.94,26.34-24.3,26.34s-24.38-11.93-24.38-26.34c0-15.31,9.72-26.36,24.38-26.36m0,45.22c10.3,0,14.92-9.86,14.92-18.86,0-9.58-5.54-18.86-14.92-18.86s-15,9.27-15,18.86C407,129.8,411.63,139.66,422.05,139.66Z"/><path d="M297,95.6H284.07V81l-9.24,3v11.6l-7.62,7.6h7.62v29.38c0,10.07,5.91,14.6,15.49,14.6a28,28,0,0,0,7.5-1.25v-7.8a11.4,11.4,0,0,1-5.9,1.57c-4.26,0-7.84-3.17-7.84-9V103.11H297Z"/><rect x="381.42" y="95.6" width="9.28" height="50.36"/><path d="M386,88.89a5.68,5.68,0,1,0-5.69-5.69A5.67,5.67,0,0,0,386,88.89Z"/><path d="M184.31,75.88c19.91,0,31.56,15.19,31.56,35.61,0,20.94-11.56,35.64-31.56,35.64s-31.5-14.71-31.5-35.64c0-20.42,11.64-35.61,31.5-35.61m0,62.58c15.11,0,21.6-13.24,21.6-27,0-14-7.13-27-21.6-26.94-14.42-.09-21.55,12.94-21.55,26.94C162.76,125.22,169.25,138.47,184.31,138.47Z"/></svg>