<svg id="Layer_2" data-name="Layer 2" xmlns="http://www.w3.org/2000/svg" viewBox="0 0 82.57 99.68"><title>BIG IDeA background logo-YELLOW</title><polygon points="47.38 0.38 81.39 59.6 13.38 59.6 47.38 0.38" style="fill:#f7ec13"/><polygon points="20.25 47.63 -6.87 0.4 47.37 0.4 20.25 47.63" style="fill:#918b34"/><polygon points="13.48 35.83 20.25 47.63 6.71 47.61 13.48 35.83" style="fill:#b2af34"/><polygon points="13.48 35.83 -6.86 0.4 -27.36 35.83 13.48 35.83" style="fill:#b2af34"/><polygon points="-27.36 35.83 -6.89 71.32 13.48 35.83 -27.36 35.83" style="fill:#e5e2a8"/><polygon points="13.37 59.6 -0.19 59.6 6.71 47.61 13.37 59.6" style="fill:#b2af34"/><polygon points="-27.36 83.27 -6.96 118.69 13.39 83.26 -27.36 83.27" style="fill:#918b34"/><polygon points="81.39 59.6 54.22 59.6 67.83 83.23 81.39 59.6" style="fill:#f7ec13"/><polygon points="67.83 83.23 26.97 83.23 47.47 118.73 67.83 83.23" style="fill:#f7ec13"/><polygon points="67.83 83.23 40.59 83.23 54.22 59.6 67.83 83.23" style="fill:#918b34"/><polygon points="40.68 59.6 47.43 71.37 33.85 71.37 40.68 59.6" style="fill:#f7ec13"/><polygon points="26.97 83.23 40.59 83.23 33.85 71.37 26.97 83.23" style="fill:#f7ec13"/><polygon points="40.68 59.6 54.22 59.6 47.43 71.37 40.68 59.6" style="fill:#f7ec13"/><polygon points="6.64 118.73 47.47 118.73 26.97 83.23 6.64 118.73" style="fill:#918b34"/><polygon points="13.42 106.89 20.18 95.1 6.59 95.1 13.42 106.89" style="fill:#b2af34"/><polygon points="13.39 83.26 6.59 95.1 20.18 95.1 13.39 83.26" style="fill:#e5e2a8"/><polygon points="6.59 95.1 -0.18 106.89 13.42 106.89 6.59 95.1" style="fill:#b2af34"/><polygon points="-0.19 59.6 -13.73 83.27 13.39 83.27 -0.19 59.6" style="fill:#b2af34"/></svg>