<svg id="Layer_1" data-name="Layer 1" xmlns="http://www.w3.org/2000/svg" viewBox="0 0 82.8 30.84"><title>BIG IDeA background logo-GREY</title><polygon points="-27.07 -16.38 -6.69 18.95 13.64 -16.38 -27.07 -16.38" style="fill:#404040"/><polygon points="-6.69 18.95 0.13 30.77 6.9 18.99 -6.69 18.95" style="fill:#c4c4c4"/><polygon points="34.1 18.99 40.93 30.77 47.69 18.99 34.1 18.99"/><polygon points="6.9 18.99 20.46 18.99 13.67 30.77 6.9 18.99" style="fill:#767676"/><polygon points="20.46 18.99 34.1 18.99 27.27 30.77 20.46 18.99" style="fill:#767676"/><polygon points="68.04 -16.41 27.21 -16.41 47.69 18.99 68.04 -16.41"/><polygon points="6.9 18.99 47.69 18.99 27.21 -16.41 6.9 18.99" style="fill:#404040"/><polygon points="0.13 30.77 6.9 18.99 13.67 30.77 0.13 30.77" style="fill:#404040"/><polygon points="13.67 30.77 20.46 18.99 27.27 30.77 13.67 30.77" style="fill:#404040"/><polygon points="27.27 30.77 34.1 18.99 40.93 30.77 27.27 30.77" style="fill:#404040"/><polygon points="6.9 18.99 -6.69 18.95 0.08 7.18 6.9 18.99"/><polygon points="0.08 7.18 13.67 7.18 6.9 18.99 0.08 7.18" style="fill:#767676"/><polygon points="13.67 7.18 20.43 -4.58 6.85 -4.58 13.67 7.18" style="fill:#767676"/><polygon points="6.85 -4.58 0.08 7.19 13.67 7.19 6.85 -4.58" style="fill:#404040"/></svg>