<svg id="Layer_1" data-name="Layer 1" xmlns="http://www.w3.org/2000/svg" viewBox="0 0 82.57 99.68"><title>BIG IDeA background logo-GREY</title><polygon points="47.49 0.62 81.47 59.69 13.51 59.69 47.49 0.62"/><polygon points="20.38 47.75 -6.71 0.65 47.48 0.65 20.38 47.75" style="fill:#404040"/><polygon points="13.61 35.99 20.38 47.75 6.85 47.73 13.61 35.99" style="fill:#767676"/><polygon points="13.61 35.99 -6.71 0.65 -27.19 35.99 13.61 35.99" style="fill:#767676"/><polygon points="-27.19 35.99 -6.74 71.38 13.62 35.99 -27.19 35.99" style="fill:#c4c4c4"/><polygon points="13.51 59.69 -0.04 59.69 6.85 47.73 13.51 59.69" style="fill:#767676"/><polygon points="-27.19 83.3 -6.8 118.63 13.53 83.29 -27.19 83.3" style="fill:#404040"/><polygon points="81.47 59.69 54.32 59.69 67.92 83.26 81.47 59.69"/><polygon points="67.92 83.26 27.1 83.26 47.58 118.67 67.92 83.26"/><polygon points="67.92 83.26 40.7 83.26 54.32 59.69 67.92 83.26" style="fill:#404040"/><polygon points="40.79 59.69 47.54 71.43 33.97 71.43 40.79 59.69" style="fill:#767676"/><polygon points="27.1 83.26 40.7 83.26 33.97 71.43 27.1 83.26" style="fill:#767676"/><polygon points="40.79 59.69 54.32 59.69 47.54 71.43 40.79 59.69"/><polygon points="6.78 118.67 47.58 118.67 27.1 83.26 6.78 118.67" style="fill:#404040"/><polygon points="13.56 106.86 20.31 95.09 6.73 95.09 13.56 106.86" style="fill:#767676"/><polygon points="13.52 83.29 6.74 95.09 20.31 95.09 13.52 83.29" style="fill:#c4c4c4"/><polygon points="6.74 95.09 -0.04 106.86 13.56 106.86 6.74 95.09" style="fill:#404040"/><polygon points="-0.04 59.69 -13.57 83.3 13.53 83.3 -0.04 59.69" style="fill:#767676"/></svg>