<svg id="Layer_4" data-name="Layer 4" xmlns="http://www.w3.org/2000/svg" viewBox="0 0 82.57 99.68"><title>BIG IDeA background logo-all colours</title><polygon points="47.46 0.28 81.46 59.51 13.45 59.51 47.46 0.28" style="fill:#451125"/><polygon points="20.33 47.53 -6.79 0.31 47.44 0.31 20.33 47.53" style="fill:#861a44"/><polygon points="13.56 35.74 20.33 47.53 6.79 47.51 13.56 35.74" style="fill:#068293"/><polygon points="13.45 59.51 6.79 47.51 20.33 47.53 13.45 59.51" style="fill:#e69e3b"/><polygon points="13.56 35.74 -6.79 0.31 -27.28 35.74 13.56 35.74" style="fill:#068293"/><polygon points="-27.28 35.74 -6.82 71.23 13.56 35.74 -27.28 35.74" style="fill:#62bdbf"/><polygon points="13.45 59.51 -0.11 59.51 6.79 47.51 13.45 59.51" style="fill:#068293"/><polygon points="-27.28 83.17 -6.88 118.59 13.47 83.17 -27.28 83.17" style="fill:#006374"/><polygon points="81.46 59.51 54.3 59.51 67.91 83.14 81.46 59.51" style="fill:#451125"/><polygon points="67.91 83.14 27.05 83.14 47.54 118.63 67.91 83.14" style="fill:#451125"/><polygon points="40.75 59.51 -0.11 59.51 20.25 95 40.75 59.51" style="fill:#f4d1a6"/><polygon points="67.91 83.14 40.67 83.14 54.3 59.51 67.91 83.14" style="fill:#ae3462"/><polygon points="40.75 59.51 47.51 71.27 33.93 71.27 40.75 59.51" style="fill:#d36e97"/><polygon points="27.05 83.14 40.67 83.14 33.93 71.27 27.05 83.14" style="fill:#d36e97"/><polygon points="33.93 71.27 47.51 71.27 40.67 83.14 33.93 71.27" style="fill:#e69e3b"/><polygon points="40.75 59.51 54.3 59.51 47.51 71.27 40.75 59.51" style="fill:#451125"/><polygon points="6.72 118.63 47.54 118.63 27.05 83.14 6.72 118.63" style="fill:#ae3462"/><polygon points="13.5 106.8 20.25 95 6.67 95 13.5 106.8" style="fill:#00313c"/><polygon points="13.46 83.17 6.67 95 20.25 95 13.46 83.17" style="fill:#62bdbf"/><polygon points="6.67 95 -0.11 106.8 13.5 106.8 6.67 95" style="fill:#068293"/><polygon points="-0.11 59.51 -13.65 83.17 13.47 83.17 -0.11 59.51" style="fill:#068293"/></svg>