<svg id="Layer_3" data-name="Layer 3" xmlns="http://www.w3.org/2000/svg" viewBox="0 0 82.8 30.84"><title>BIG IDeA background logo-WHITE</title><polygon points="-27.05 -16.34 -6.67 18.99 13.67 -16.35 -27.05 -16.34" style="fill:#848484"/><polygon points="-6.67 18.99 0.15 30.8 6.92 19.02 -6.67 18.99" style="fill:#fff"/><polygon points="34.13 19.02 40.95 30.8 47.72 19.02 34.13 19.02" style="fill:#fff"/><polygon points="6.92 19.02 20.48 19.02 13.7 30.8 6.92 19.02" style="fill:#fff"/><polygon points="20.48 19.02 34.13 19.02 27.29 30.8 20.48 19.02" style="fill:#fff"/><polygon points="68.06 -16.38 27.24 -16.38 47.72 19.02 68.06 -16.38" style="fill:#fff"/><polygon points="6.92 19.02 47.72 19.02 27.24 -16.38 6.92 19.02" style="fill:#848484"/><polygon points="0.15 30.8 6.92 19.02 13.7 30.8 0.15 30.8" style="fill:#404040"/><polygon points="13.7 30.8 20.48 19.02 27.29 30.8 13.7 30.8" style="fill:#404040"/><polygon points="27.29 30.8 34.13 19.02 40.95 30.8 27.29 30.8" style="fill:#848484"/><polygon points="6.92 19.02 -6.67 18.99 0.1 7.22 6.92 19.02" style="fill:#fff"/><polygon points="0.1 7.22 13.7 7.22 6.92 19.02 0.1 7.22" style="fill:#ccc"/><polygon points="13.7 7.22 20.45 -4.55 6.88 -4.55 13.7 7.22" style="fill:#ccc"/><polygon points="6.88 -4.55 0.1 7.22 13.7 7.22 6.88 -4.55" style="fill:#e6e7e8"/></svg>