<svg id="Layer_2" data-name="Layer 2" xmlns="http://www.w3.org/2000/svg" viewBox="0 0 82.8 30.84"><title>BIG IDeA background logo-YELLOW</title><polygon points="-27.24 -16.41 -6.84 19.01 13.51 -16.41 -27.24 -16.41" style="fill:#918b34"/><polygon points="-6.84 19.01 -0.01 30.86 6.76 19.05 -6.84 19.01" style="fill:#e5e2a8"/><polygon points="33.99 19.05 40.81 30.86 47.59 19.05 33.99 19.05" style="fill:#f7ec13"/><polygon points="6.76 19.05 20.33 19.05 13.54 30.86 6.76 19.05" style="fill:#b2af34"/><polygon points="20.33 19.05 33.99 19.05 27.14 30.86 20.33 19.05" style="fill:#c9c241"/><polygon points="67.95 -16.44 27.09 -16.44 47.59 19.05 67.95 -16.44" style="fill:#f7ec13"/><polygon points="6.76 19.05 47.59 19.05 27.09 -16.44 6.76 19.05" style="fill:#918b34"/><polygon points="-0.01 30.86 6.76 19.05 13.54 30.86 -0.01 30.86" style="fill:#918b34"/><polygon points="13.54 30.86 20.33 19.05 27.14 30.86 13.54 30.86" style="fill:#f7ec13"/><polygon points="27.14 30.86 33.99 19.05 40.81 30.86 27.14 30.86" style="fill:#918b34"/><polygon points="6.76 19.05 -6.84 19.01 -0.07 7.22 6.76 19.05" style="fill:#b2af34"/><polygon points="-0.07 7.22 13.54 7.22 6.76 19.05 -0.07 7.22" style="fill:#b2af34"/><polygon points="13.54 7.22 20.3 -4.58 6.71 -4.58 13.54 7.22" style="fill:#b2af34"/><polygon points="6.71 -4.58 -0.07 7.22 13.54 7.22 6.71 -4.58" style="fill:#b2af34"/></svg>