<svg id="Layer_4" data-name="Layer 4" xmlns="http://www.w3.org/2000/svg" viewBox="0 0 82.8 30.84"><title>BIG IDeA background logo-all colours</title><polygon points="-27.17 -16.51 -6.76 18.91 13.58 -16.51 -27.17 -16.51" style="fill:#006374"/><polygon points="-6.76 18.91 0.06 30.76 6.84 18.95 -6.76 18.91" style="fill:#62bdbf"/><polygon points="34.06 18.95 40.89 30.76 47.66 18.95 34.06 18.95" style="fill:#451125"/><polygon points="6.84 18.95 20.41 18.95 13.62 30.76 6.84 18.95" style="fill:#00313c"/><polygon points="20.41 18.95 34.06 18.95 27.22 30.76 20.41 18.95" style="fill:#d36e97"/><polygon points="68.02 -16.54 27.17 -16.54 47.66 18.95 68.02 -16.54" style="fill:#451125"/><polygon points="6.84 18.95 47.66 18.95 27.17 -16.54 6.84 18.95" style="fill:#ae3462"/><polygon points="0.06 30.76 6.84 18.95 13.62 30.76 0.06 30.76" style="fill:#006374"/><polygon points="13.62 30.76 20.41 18.95 27.22 30.76 13.62 30.76" style="fill:#ae3462"/><polygon points="27.22 30.76 34.06 18.95 40.89 30.76 27.22 30.76" style="fill:#ae3462"/><polygon points="6.84 18.95 -6.76 18.91 0.01 7.12 6.84 18.95" style="fill:#00313c"/><polygon points="0.01 7.12 13.61 7.12 6.84 18.95 0.01 7.12" style="fill:#068293"/><polygon points="13.62 7.12 20.37 -4.68 6.79 -4.68 13.62 7.12" style="fill:#00313c"/><polygon points="6.79 -4.68 0.01 7.12 13.62 7.12 6.79 -4.68" style="fill:#068293"/></svg>