<svg id="Layer_3" data-name="Layer 3" xmlns="http://www.w3.org/2000/svg" viewBox="0 0 82.57 99.68"><title>BIG IDeA background logo-WHITE</title><polygon points="47.51 0.66 81.49 59.73 13.53 59.73 47.51 0.66" style="fill:#fff"/><polygon points="20.4 47.78 -6.69 0.68 47.5 0.68 20.4 47.78" style="fill:#848484"/><polygon points="13.64 36.02 20.4 47.78 6.87 47.77 13.64 36.02" style="fill:#ccc"/><polygon points="13.64 36.02 -6.69 0.68 -27.17 36.02 13.64 36.02" style="fill:#ccc"/><polygon points="-27.17 36.02 -6.72 71.42 13.64 36.02 -27.17 36.02" style="fill:#fff"/><polygon points="13.53 59.73 -0.02 59.73 6.87 47.77 13.53 59.73" style="fill:#ccc"/><polygon points="-27.17 83.33 -6.78 118.66 13.55 83.33 -27.17 83.33" style="fill:#848484"/><polygon points="81.49 59.73 54.35 59.73 67.94 83.3 81.49 59.73" style="fill:#fff"/><polygon points="67.94 83.3 27.12 83.3 47.6 118.7 67.94 83.3" style="fill:#fff"/><polygon points="67.94 83.3 40.73 83.3 54.35 59.73 67.94 83.3" style="fill:#848484"/><polygon points="40.81 59.73 47.56 71.47 33.99 71.47 40.81 59.73" style="fill:#ccc"/><polygon points="27.12 83.3 40.73 83.3 33.99 71.47 27.12 83.3" style="fill:#ccc"/><polygon points="40.81 59.73 54.35 59.73 47.56 71.47 40.81 59.73" style="fill:#fff"/><polygon points="6.81 118.7 47.6 118.7 27.12 83.3 6.81 118.7" style="fill:#848484"/><polygon points="13.58 106.9 20.33 95.13 6.76 95.13 13.58 106.9" style="fill:#ccc"/><polygon points="13.55 83.33 6.76 95.13 20.33 95.13 13.55 83.33" style="fill:#fff"/><polygon points="6.76 95.13 -0.01 106.9 13.58 106.9 6.76 95.13" style="fill:#e6e7e8"/><polygon points="-0.02 59.73 -13.55 83.33 13.55 83.33 -0.02 59.73" style="fill:#ccc"/></svg>